<svg width="32" height="17" viewBox="0 0 32 17" fill="none" xmlns="http://www.w3.org/2000/svg">
<mask id="path-1-outside-1_2115_3055" maskUnits="userSpaceOnUse" x="0" y="-0.39473" width="32" height="18" fill="black">
<rect fill="white" y="-0.39473" width="32" height="18"/>
<path d="M28.6539 4.86843C28.1989 4.83154 27.7754 4.7286 27.3904 4.56911L27.1864 4.47902C27.1864 4.47902 27.1504 4.50471 27.1016 4.47902C27.0598 4.45695 27.1016 4.47902 26.8474 4.30031L26.4958 4.03862C26.1844 3.78555 25.9186 3.48179 25.7088 3.13159L25.559 2.86841C24.7604 1.44735 23.3128 0.60527 21.7654 0.60527H15.2263C13.9784 0.60527 12.7804 1.18424 11.9318 2.18422L11.2329 2.92108C9.93512 4.44735 8.18801 5.44733 6.24126 5.71051L3.19636 6.13159C1.9484 6.34209 1 7.44735 1 8.76312V11.1315C1 12.6052 2.09815 13.7631 3.49586 13.7631H5.53521C5.77475 15.2517 7.01031 16.3947 8.48751 16.3947C9.96472 16.3947 11.2003 15.2517 11.4398 13.7631H21.5086C21.7481 15.2517 22.9837 16.3947 24.4609 16.3947C25.9381 16.3947 27.1736 15.2517 27.4132 13.7631H28.4542C29.8519 13.7631 30.9501 12.6053 31 11.1842V7.50003C30.9999 6.13159 29.9517 4.97365 28.6539 4.86843ZM8.48751 15.3421C7.38936 15.3421 6.49086 14.3947 6.49086 13.2368C6.49086 12.079 7.38936 11.1316 8.48751 11.1316C9.58566 11.1316 10.4842 12.079 10.4842 13.2368C10.4842 14.3947 9.58566 15.3421 8.48751 15.3421ZM24.4609 15.3421C23.3627 15.3421 22.4642 14.3947 22.4642 13.2368C22.4642 12.079 23.3627 11.1316 24.4609 11.1316C25.559 11.1316 26.4575 12.079 26.4575 13.2368C26.4575 14.3947 25.559 15.3421 24.4609 15.3421ZM29.9517 11.1315C29.9517 12.0263 29.3028 12.7105 28.4542 12.7105H27.4131C27.2446 11.6632 26.583 10.7876 25.6908 10.3602C25.671 10.3506 25.6513 10.3408 25.6313 10.3317C25.6188 10.326 25.606 10.3209 25.5934 10.3154C25.561 10.3013 25.5285 10.2875 25.4956 10.2746C25.4867 10.2711 25.4777 10.2679 25.4687 10.2645C25.4322 10.2506 25.3952 10.2373 25.358 10.2248C25.3499 10.2221 25.3418 10.2196 25.3337 10.217C25.2958 10.2047 25.2575 10.1931 25.2189 10.1824C25.2104 10.1801 25.2019 10.1778 25.1933 10.1755C25.1554 10.1654 25.1172 10.156 25.0786 10.1474C25.0689 10.1453 25.0592 10.143 25.0495 10.141C25.0123 10.1331 24.9748 10.1261 24.9371 10.1197C24.9259 10.1178 24.9148 10.1157 24.9036 10.1139C24.8673 10.1082 24.8306 10.1034 24.7938 10.0991C24.7813 10.0976 24.7689 10.0959 24.7564 10.0946C24.7196 10.0907 24.6825 10.088 24.6453 10.0856C24.633 10.0848 24.6209 10.0835 24.6086 10.0829C24.5596 10.0804 24.5103 10.0789 24.4607 10.0789C24.411 10.0789 24.3617 10.0804 24.3127 10.0829C24.3004 10.0835 24.2883 10.0848 24.276 10.0856C24.2388 10.088 24.2017 10.0907 24.1649 10.0946C24.1524 10.0959 24.14 10.0976 24.1275 10.0991C24.0907 10.1034 24.054 10.1083 24.0177 10.1139C24.0065 10.1157 23.9954 10.1178 23.9841 10.1197C23.9464 10.1261 23.909 10.1331 23.8718 10.1409C23.862 10.143 23.8524 10.1452 23.8426 10.1474C23.8042 10.1559 23.766 10.1653 23.728 10.1754C23.7195 10.1777 23.7109 10.18 23.7024 10.1824C23.6638 10.1931 23.6255 10.2047 23.5876 10.217C23.5795 10.2196 23.5715 10.2221 23.5634 10.2248C23.5261 10.2373 23.4892 10.2506 23.4526 10.2645C23.4437 10.2679 23.4347 10.2711 23.4259 10.2746C23.3929 10.2875 23.3603 10.3014 23.3279 10.3156C23.3153 10.321 23.3026 10.3262 23.2901 10.3318C23.2701 10.3409 23.2504 10.3508 23.2305 10.3603C22.3385 10.7878 21.6768 11.6633 21.5084 12.7106H11.4398C11.2713 11.6633 10.6098 10.7878 9.71774 10.3604C9.69786 10.3508 9.67814 10.3409 9.65802 10.3318C9.64556 10.3262 9.63287 10.321 9.62029 10.3156C9.58788 10.3014 9.5553 10.2876 9.52231 10.2746C9.51348 10.2711 9.50447 10.2679 9.49558 10.2645C9.45896 10.2506 9.42205 10.2373 9.38478 10.2248C9.37677 10.2222 9.36864 10.2196 9.36057 10.217C9.32266 10.2047 9.2844 10.1931 9.2458 10.1824C9.23726 10.18 9.22872 10.1777 9.22012 10.1754C9.18221 10.1653 9.14401 10.1559 9.10546 10.1474C9.09575 10.1452 9.0861 10.143 9.07639 10.1409C9.03919 10.133 9.00169 10.126 8.96396 10.1196C8.95279 10.1177 8.94168 10.1157 8.93044 10.1139C8.89412 10.1081 8.85744 10.1034 8.82065 10.0991C8.80819 10.0976 8.79579 10.0959 8.78327 10.0945C8.74647 10.0907 8.70939 10.0879 8.67218 10.0855C8.6599 10.0847 8.64779 10.0835 8.63545 10.0828C8.58649 10.0803 8.53717 10.0788 8.48751 10.0788C8.43785 10.0788 8.38854 10.0803 8.33957 10.0828C8.32729 10.0835 8.31512 10.0847 8.30284 10.0855C8.26563 10.0879 8.22855 10.0907 8.19175 10.0945C8.17924 10.0958 8.16684 10.0976 8.15438 10.0991C8.11758 10.1034 8.0809 10.1082 8.04458 10.1139C8.03335 10.1157 8.02223 10.1177 8.01106 10.1196C7.97333 10.126 7.93583 10.133 7.89863 10.1409C7.88892 10.143 7.87921 10.1452 7.86956 10.1474C7.83101 10.1559 7.79281 10.1653 7.75491 10.1754C7.74637 10.1777 7.73777 10.18 7.72922 10.1824C7.69062 10.1931 7.65242 10.2047 7.61445 10.2169C7.60638 10.2195 7.59825 10.222 7.59018 10.2248C7.55292 10.2372 7.51606 10.2505 7.47945 10.2645C7.4705 10.2679 7.46149 10.2711 7.4526 10.2745C7.41966 10.2875 7.38714 10.3012 7.35479 10.3154C7.34216 10.3209 7.3294 10.326 7.31689 10.3316C7.29688 10.3408 7.27723 10.3506 7.2574 10.3601C6.36521 10.7875 5.70356 11.6631 5.53503 12.7104H3.49586C2.64725 12.7104 1.99835 12.0262 1.99835 11.1315V8.76306C1.99835 7.97359 2.54746 7.2894 3.29621 7.23673L6.34111 6.81565C8.53747 6.55247 10.5341 5.44721 11.9817 3.71037L12.6806 2.86828C13.3295 2.07881 14.228 1.65774 15.2263 1.65774H21.7654C22.9634 1.65774 24.0616 2.34193 24.6606 3.34197L24.8103 3.60515C25.1622 4.22347 25.6574 4.73712 26.2492 5.1189C26.2961 5.16121 26.3446 5.19193 26.3995 5.21142C27.0343 5.5871 27.77 5.81666 28.5541 5.86835C29.3527 5.92096 29.9517 6.60521 29.9517 7.44729L29.9517 11.1315Z"/>
</mask>
<path d="M28.6539 4.86843C28.1989 4.83154 27.7754 4.7286 27.3904 4.56911L27.1864 4.47902C27.1864 4.47902 27.1504 4.50471 27.1016 4.47902C27.0598 4.45695 27.1016 4.47902 26.8474 4.30031L26.4958 4.03862C26.1844 3.78555 25.9186 3.48179 25.7088 3.13159L25.559 2.86841C24.7604 1.44735 23.3128 0.60527 21.7654 0.60527H15.2263C13.9784 0.60527 12.7804 1.18424 11.9318 2.18422L11.2329 2.92108C9.93512 4.44735 8.18801 5.44733 6.24126 5.71051L3.19636 6.13159C1.9484 6.34209 1 7.44735 1 8.76312V11.1315C1 12.6052 2.09815 13.7631 3.49586 13.7631H5.53521C5.77475 15.2517 7.01031 16.3947 8.48751 16.3947C9.96472 16.3947 11.2003 15.2517 11.4398 13.7631H21.5086C21.7481 15.2517 22.9837 16.3947 24.4609 16.3947C25.9381 16.3947 27.1736 15.2517 27.4132 13.7631H28.4542C29.8519 13.7631 30.9501 12.6053 31 11.1842V7.50003C30.9999 6.13159 29.9517 4.97365 28.6539 4.86843ZM8.48751 15.3421C7.38936 15.3421 6.49086 14.3947 6.49086 13.2368C6.49086 12.079 7.38936 11.1316 8.48751 11.1316C9.58566 11.1316 10.4842 12.079 10.4842 13.2368C10.4842 14.3947 9.58566 15.3421 8.48751 15.3421ZM24.4609 15.3421C23.3627 15.3421 22.4642 14.3947 22.4642 13.2368C22.4642 12.079 23.3627 11.1316 24.4609 11.1316C25.559 11.1316 26.4575 12.079 26.4575 13.2368C26.4575 14.3947 25.559 15.3421 24.4609 15.3421ZM29.9517 11.1315C29.9517 12.0263 29.3028 12.7105 28.4542 12.7105H27.4131C27.2446 11.6632 26.583 10.7876 25.6908 10.3602C25.671 10.3506 25.6513 10.3408 25.6313 10.3317C25.6188 10.326 25.606 10.3209 25.5934 10.3154C25.561 10.3013 25.5285 10.2875 25.4956 10.2746C25.4867 10.2711 25.4777 10.2679 25.4687 10.2645C25.4322 10.2506 25.3952 10.2373 25.358 10.2248C25.3499 10.2221 25.3418 10.2196 25.3337 10.217C25.2958 10.2047 25.2575 10.1931 25.2189 10.1824C25.2104 10.1801 25.2019 10.1778 25.1933 10.1755C25.1554 10.1654 25.1172 10.156 25.0786 10.1474C25.0689 10.1453 25.0592 10.143 25.0495 10.141C25.0123 10.1331 24.9748 10.1261 24.9371 10.1197C24.9259 10.1178 24.9148 10.1157 24.9036 10.1139C24.8673 10.1082 24.8306 10.1034 24.7938 10.0991C24.7813 10.0976 24.7689 10.0959 24.7564 10.0946C24.7196 10.0907 24.6825 10.088 24.6453 10.0856C24.633 10.0848 24.6209 10.0835 24.6086 10.0829C24.5596 10.0804 24.5103 10.0789 24.4607 10.0789C24.411 10.0789 24.3617 10.0804 24.3127 10.0829C24.3004 10.0835 24.2883 10.0848 24.276 10.0856C24.2388 10.088 24.2017 10.0907 24.1649 10.0946C24.1524 10.0959 24.14 10.0976 24.1275 10.0991C24.0907 10.1034 24.054 10.1083 24.0177 10.1139C24.0065 10.1157 23.9954 10.1178 23.9841 10.1197C23.9464 10.1261 23.909 10.1331 23.8718 10.1409C23.862 10.143 23.8524 10.1452 23.8426 10.1474C23.8042 10.1559 23.766 10.1653 23.728 10.1754C23.7195 10.1777 23.7109 10.18 23.7024 10.1824C23.6638 10.1931 23.6255 10.2047 23.5876 10.217C23.5795 10.2196 23.5715 10.2221 23.5634 10.2248C23.5261 10.2373 23.4892 10.2506 23.4526 10.2645C23.4437 10.2679 23.4347 10.2711 23.4259 10.2746C23.3929 10.2875 23.3603 10.3014 23.3279 10.3156C23.3153 10.321 23.3026 10.3262 23.2901 10.3318C23.2701 10.3409 23.2504 10.3508 23.2305 10.3603C22.3385 10.7878 21.6768 11.6633 21.5084 12.7106H11.4398C11.2713 11.6633 10.6098 10.7878 9.71774 10.3604C9.69786 10.3508 9.67814 10.3409 9.65802 10.3318C9.64556 10.3262 9.63287 10.321 9.62029 10.3156C9.58788 10.3014 9.5553 10.2876 9.52231 10.2746C9.51348 10.2711 9.50447 10.2679 9.49558 10.2645C9.45896 10.2506 9.42205 10.2373 9.38478 10.2248C9.37677 10.2222 9.36864 10.2196 9.36057 10.217C9.32266 10.2047 9.2844 10.1931 9.2458 10.1824C9.23726 10.18 9.22872 10.1777 9.22012 10.1754C9.18221 10.1653 9.14401 10.1559 9.10546 10.1474C9.09575 10.1452 9.0861 10.143 9.07639 10.1409C9.03919 10.133 9.00169 10.126 8.96396 10.1196C8.95279 10.1177 8.94168 10.1157 8.93044 10.1139C8.89412 10.1081 8.85744 10.1034 8.82065 10.0991C8.80819 10.0976 8.79579 10.0959 8.78327 10.0945C8.74647 10.0907 8.70939 10.0879 8.67218 10.0855C8.6599 10.0847 8.64779 10.0835 8.63545 10.0828C8.58649 10.0803 8.53717 10.0788 8.48751 10.0788C8.43785 10.0788 8.38854 10.0803 8.33957 10.0828C8.32729 10.0835 8.31512 10.0847 8.30284 10.0855C8.26563 10.0879 8.22855 10.0907 8.19175 10.0945C8.17924 10.0958 8.16684 10.0976 8.15438 10.0991C8.11758 10.1034 8.0809 10.1082 8.04458 10.1139C8.03335 10.1157 8.02223 10.1177 8.01106 10.1196C7.97333 10.126 7.93583 10.133 7.89863 10.1409C7.88892 10.143 7.87921 10.1452 7.86956 10.1474C7.83101 10.1559 7.79281 10.1653 7.75491 10.1754C7.74637 10.1777 7.73777 10.18 7.72922 10.1824C7.69062 10.1931 7.65242 10.2047 7.61445 10.2169C7.60638 10.2195 7.59825 10.222 7.59018 10.2248C7.55292 10.2372 7.51606 10.2505 7.47945 10.2645C7.4705 10.2679 7.46149 10.2711 7.4526 10.2745C7.41966 10.2875 7.38714 10.3012 7.35479 10.3154C7.34216 10.3209 7.3294 10.326 7.31689 10.3316C7.29688 10.3408 7.27723 10.3506 7.2574 10.3601C6.36521 10.7875 5.70356 11.6631 5.53503 12.7104H3.49586C2.64725 12.7104 1.99835 12.0262 1.99835 11.1315V8.76306C1.99835 7.97359 2.54746 7.2894 3.29621 7.23673L6.34111 6.81565C8.53747 6.55247 10.5341 5.44721 11.9817 3.71037L12.6806 2.86828C13.3295 2.07881 14.228 1.65774 15.2263 1.65774H21.7654C22.9634 1.65774 24.0616 2.34193 24.6606 3.34197L24.8103 3.60515C25.1622 4.22347 25.6574 4.73712 26.2492 5.1189C26.2961 5.16121 26.3446 5.19193 26.3995 5.21142C27.0343 5.5871 27.77 5.81666 28.5541 5.86835C29.3527 5.92096 29.9517 6.60521 29.9517 7.44729L29.9517 11.1315Z" fill="#A9A9A9"/>
<path d="M28.6539 4.86843C28.1989 4.83154 27.7754 4.7286 27.3904 4.56911L27.1864 4.47902C27.1864 4.47902 27.1504 4.50471 27.1016 4.47902C27.0598 4.45695 27.1016 4.47902 26.8474 4.30031L26.4958 4.03862C26.1844 3.78555 25.9186 3.48179 25.7088 3.13159L25.559 2.86841C24.7604 1.44735 23.3128 0.60527 21.7654 0.60527H15.2263C13.9784 0.60527 12.7804 1.18424 11.9318 2.18422L11.2329 2.92108C9.93512 4.44735 8.18801 5.44733 6.24126 5.71051L3.19636 6.13159C1.9484 6.34209 1 7.44735 1 8.76312V11.1315C1 12.6052 2.09815 13.7631 3.49586 13.7631H5.53521C5.77475 15.2517 7.01031 16.3947 8.48751 16.3947C9.96472 16.3947 11.2003 15.2517 11.4398 13.7631H21.5086C21.7481 15.2517 22.9837 16.3947 24.4609 16.3947C25.9381 16.3947 27.1736 15.2517 27.4132 13.7631H28.4542C29.8519 13.7631 30.9501 12.6053 31 11.1842V7.50003C30.9999 6.13159 29.9517 4.97365 28.6539 4.86843ZM8.48751 15.3421C7.38936 15.3421 6.49086 14.3947 6.49086 13.2368C6.49086 12.079 7.38936 11.1316 8.48751 11.1316C9.58566 11.1316 10.4842 12.079 10.4842 13.2368C10.4842 14.3947 9.58566 15.3421 8.48751 15.3421ZM24.4609 15.3421C23.3627 15.3421 22.4642 14.3947 22.4642 13.2368C22.4642 12.079 23.3627 11.1316 24.4609 11.1316C25.559 11.1316 26.4575 12.079 26.4575 13.2368C26.4575 14.3947 25.559 15.3421 24.4609 15.3421ZM29.9517 11.1315C29.9517 12.0263 29.3028 12.7105 28.4542 12.7105H27.4131C27.2446 11.6632 26.583 10.7876 25.6908 10.3602C25.671 10.3506 25.6513 10.3408 25.6313 10.3317C25.6188 10.326 25.606 10.3209 25.5934 10.3154C25.561 10.3013 25.5285 10.2875 25.4956 10.2746C25.4867 10.2711 25.4777 10.2679 25.4687 10.2645C25.4322 10.2506 25.3952 10.2373 25.358 10.2248C25.3499 10.2221 25.3418 10.2196 25.3337 10.217C25.2958 10.2047 25.2575 10.1931 25.2189 10.1824C25.2104 10.1801 25.2019 10.1778 25.1933 10.1755C25.1554 10.1654 25.1172 10.156 25.0786 10.1474C25.0689 10.1453 25.0592 10.143 25.0495 10.141C25.0123 10.1331 24.9748 10.1261 24.9371 10.1197C24.9259 10.1178 24.9148 10.1157 24.9036 10.1139C24.8673 10.1082 24.8306 10.1034 24.7938 10.0991C24.7813 10.0976 24.7689 10.0959 24.7564 10.0946C24.7196 10.0907 24.6825 10.088 24.6453 10.0856C24.633 10.0848 24.6209 10.0835 24.6086 10.0829C24.5596 10.0804 24.5103 10.0789 24.4607 10.0789C24.411 10.0789 24.3617 10.0804 24.3127 10.0829C24.3004 10.0835 24.2883 10.0848 24.276 10.0856C24.2388 10.088 24.2017 10.0907 24.1649 10.0946C24.1524 10.0959 24.14 10.0976 24.1275 10.0991C24.0907 10.1034 24.054 10.1083 24.0177 10.1139C24.0065 10.1157 23.9954 10.1178 23.9841 10.1197C23.9464 10.1261 23.909 10.1331 23.8718 10.1409C23.862 10.143 23.8524 10.1452 23.8426 10.1474C23.8042 10.1559 23.766 10.1653 23.728 10.1754C23.7195 10.1777 23.7109 10.18 23.7024 10.1824C23.6638 10.1931 23.6255 10.2047 23.5876 10.217C23.5795 10.2196 23.5715 10.2221 23.5634 10.2248C23.5261 10.2373 23.4892 10.2506 23.4526 10.2645C23.4437 10.2679 23.4347 10.2711 23.4259 10.2746C23.3929 10.2875 23.3603 10.3014 23.3279 10.3156C23.3153 10.321 23.3026 10.3262 23.2901 10.3318C23.2701 10.3409 23.2504 10.3508 23.2305 10.3603C22.3385 10.7878 21.6768 11.6633 21.5084 12.7106H11.4398C11.2713 11.6633 10.6098 10.7878 9.71774 10.3604C9.69786 10.3508 9.67814 10.3409 9.65802 10.3318C9.64556 10.3262 9.63287 10.321 9.62029 10.3156C9.58788 10.3014 9.5553 10.2876 9.52231 10.2746C9.51348 10.2711 9.50447 10.2679 9.49558 10.2645C9.45896 10.2506 9.42205 10.2373 9.38478 10.2248C9.37677 10.2222 9.36864 10.2196 9.36057 10.217C9.32266 10.2047 9.2844 10.1931 9.2458 10.1824C9.23726 10.18 9.22872 10.1777 9.22012 10.1754C9.18221 10.1653 9.14401 10.1559 9.10546 10.1474C9.09575 10.1452 9.0861 10.143 9.07639 10.1409C9.03919 10.133 9.00169 10.126 8.96396 10.1196C8.95279 10.1177 8.94168 10.1157 8.93044 10.1139C8.89412 10.1081 8.85744 10.1034 8.82065 10.0991C8.80819 10.0976 8.79579 10.0959 8.78327 10.0945C8.74647 10.0907 8.70939 10.0879 8.67218 10.0855C8.6599 10.0847 8.64779 10.0835 8.63545 10.0828C8.58649 10.0803 8.53717 10.0788 8.48751 10.0788C8.43785 10.0788 8.38854 10.0803 8.33957 10.0828C8.32729 10.0835 8.31512 10.0847 8.30284 10.0855C8.26563 10.0879 8.22855 10.0907 8.19175 10.0945C8.17924 10.0958 8.16684 10.0976 8.15438 10.0991C8.11758 10.1034 8.0809 10.1082 8.04458 10.1139C8.03335 10.1157 8.02223 10.1177 8.01106 10.1196C7.97333 10.126 7.93583 10.133 7.89863 10.1409C7.88892 10.143 7.87921 10.1452 7.86956 10.1474C7.83101 10.1559 7.79281 10.1653 7.75491 10.1754C7.74637 10.1777 7.73777 10.18 7.72922 10.1824C7.69062 10.1931 7.65242 10.2047 7.61445 10.2169C7.60638 10.2195 7.59825 10.222 7.59018 10.2248C7.55292 10.2372 7.51606 10.2505 7.47945 10.2645C7.4705 10.2679 7.46149 10.2711 7.4526 10.2745C7.41966 10.2875 7.38714 10.3012 7.35479 10.3154C7.34216 10.3209 7.3294 10.326 7.31689 10.3316C7.29688 10.3408 7.27723 10.3506 7.2574 10.3601C6.36521 10.7875 5.70356 11.6631 5.53503 12.7104H3.49586C2.64725 12.7104 1.99835 12.0262 1.99835 11.1315V8.76306C1.99835 7.97359 2.54746 7.2894 3.29621 7.23673L6.34111 6.81565C8.53747 6.55247 10.5341 5.44721 11.9817 3.71037L12.6806 2.86828C13.3295 2.07881 14.228 1.65774 15.2263 1.65774H21.7654C22.9634 1.65774 24.0616 2.34193 24.6606 3.34197L24.8103 3.60515C25.1622 4.22347 25.6574 4.73712 26.2492 5.1189C26.2961 5.16121 26.3446 5.19193 26.3995 5.21142C27.0343 5.5871 27.77 5.81666 28.5541 5.86835C29.3527 5.92096 29.9517 6.60521 29.9517 7.44729L29.9517 11.1315Z" stroke="#A9A9A9" stroke-width="0.6" mask="url(#path-1-outside-1_2115_3055)"/>
</svg>
