<svg width="24" height="24" viewBox="0 0 24 24" fill="none" xmlns="http://www.w3.org/2000/svg">
<path d="M15.7651 4.00146H8.34314C5.75892 4.00146 3.65234 6.0667 3.65234 8.60022V15.8766C3.65234 18.4101 5.75892 20.4754 8.34314 20.4754H15.7651C18.3494 20.4754 20.4559 18.4101 20.4559 15.8766V8.60022C20.4682 6.0667 18.3616 4.00146 15.7651 4.00146ZM18.7535 8.60022V15.8766C18.7535 17.4856 17.4186 18.7943 15.7774 18.7943H8.34314C6.70198 18.7943 5.367 17.4856 5.367 15.8766V8.60022C5.367 6.99126 6.70198 5.68247 8.34314 5.68247H15.7651C17.4063 5.68247 18.7535 6.99126 18.7535 8.60022Z" fill="url(#paint0_linear_214_2438)"/>
<path d="M12.0541 7.93994C9.62908 7.93994 7.65723 9.8731 7.65723 12.2385C7.65723 14.616 9.62908 16.5491 12.0541 16.5491C14.4791 16.5491 16.451 14.616 16.451 12.2385C16.451 9.8731 14.4791 7.93994 12.0541 7.93994ZM12.0541 14.8681C10.5844 14.8681 9.37188 13.6914 9.37188 12.2505C9.37188 10.8097 10.5721 9.62095 12.0541 9.62095C13.5238 9.62095 14.7363 10.7977 14.7363 12.2505C14.7363 13.6914 13.536 14.8681 12.0541 14.8681Z" fill="url(#paint1_linear_214_2438)"/>
<path d="M16.4991 6.71484C16.1807 6.71484 15.8745 6.83492 15.654 7.06305C15.4336 7.27918 15.2988 7.57936 15.2988 7.89155C15.2988 8.20374 15.4213 8.50392 15.654 8.72005C15.8745 8.93618 16.1807 9.06826 16.4991 9.06826C16.8176 9.06826 17.1237 8.94818 17.3442 8.72005C17.5647 8.50392 17.6994 8.20374 17.6994 7.89155C17.6994 7.57936 17.5769 7.27918 17.3442 7.06305C17.136 6.83492 16.8176 6.71484 16.4991 6.71484Z" fill="url(#paint2_linear_214_2438)"/>
<defs>
<linearGradient id="paint0_linear_214_2438" x1="20.456" y1="5.69109" x2="6.75055" y2="20.7463" gradientUnits="userSpaceOnUse">
<stop stop-color="#CF05D3"/>
<stop offset="1" stop-color="#FCC70D"/>
</linearGradient>
<linearGradient id="paint1_linear_214_2438" x1="16.451" y1="8.82293" x2="9.28948" y2="16.7006" gradientUnits="userSpaceOnUse">
<stop stop-color="#CF05D3"/>
<stop offset="1" stop-color="#FCC70D"/>
</linearGradient>
<linearGradient id="paint2_linear_214_2438" x1="17.6994" y1="6.95622" x2="15.7415" y2="9.10699" gradientUnits="userSpaceOnUse">
<stop stop-color="#CF05D3"/>
<stop offset="1" stop-color="#FCC70D"/>
</linearGradient>
</defs>
</svg>
