<?xml version="1.0" encoding="utf-8"?>
<!-- Generator: Adobe Illustrator 25.4.1, SVG Export Plug-In . SVG Version: 6.00 Build 0)  -->
<svg version="1.1" id="Слой_1" xmlns="http://www.w3.org/2000/svg" xmlns:xlink="http://www.w3.org/1999/xlink" x="0px" y="0px"
	 viewBox="0 0 20 23" style="enable-background:new 0 0 20 23;" xml:space="preserve">
<style type="text/css">
	.st0{fill-rule:evenodd;clip-rule:evenodd;fill:#888888;}
</style>
<path class="st0" d="M3.1,8.4c-0.2,2.2-0.2,4.8,0.1,7c0.2,1.2,1,2.2,2.1,2.3l1.1,0.1c2.4,0.2,4.7,0.2,7.1,0l1.1-0.1
	c1.1-0.1,2-1.1,2.1-2.3c0.3-2.2,0.3-4.8,0.1-7c0-0.3-0.1-0.5-0.1-0.8c-0.2-1.2-1-2.2-2.1-2.3l-1.1-0.1C11.2,5,8.8,5,6.5,5.2L5.3,5.3
	c-1.1,0.1-2,1.1-2.1,2.3C3.2,7.8,3.1,8.1,3.1,8.4z M6.5,6.5c2.3-0.2,4.6-0.2,6.9,0l1.1,0.1c0.6,0.1,1,0.5,1.1,1.2c0,0.1,0,0.1,0,0.2
	l-4.2,2.6c-1,0.6-2.1,0.6-3.1,0L4.3,8c0-0.1,0-0.1,0-0.2c0.1-0.6,0.5-1.1,1.1-1.2L6.5,6.5z M15.9,9.4c0.1,1.9,0.1,3.9-0.2,5.8
	c-0.1,0.6-0.5,1.1-1.1,1.2l-1.1,0.1c-2.3,0.2-4.6,0.2-6.9,0l-1.1-0.1c-0.6-0.1-1-0.5-1.1-1.2C4.1,13.3,4,11.3,4.1,9.4l3.8,2.4
	c1.3,0.8,2.9,0.8,4.2,0L15.9,9.4z"/>
</svg>
