<svg width="20" height="21" viewBox="0 0 20 21" fill="none" xmlns="http://www.w3.org/2000/svg">
<path fill-rule="evenodd" clip-rule="evenodd" d="M15 9.28436L14.9952 9.45677L15 9.63933L14.9954 9.812L15 9.99428L14.9956 10.1681L15 10.3492L14.8797 15.3918C14.8511 16.5882 13.9017 17.579 12.6604 17.7078C10.892 17.8913 9.10806 17.8913 7.33967 17.7078C6.0983 17.579 5.14888 16.5882 5.12034 15.3918L5.00007 10.3492L5.00441 10.1669L5.00008 9.99428L5.00464 9.81272L5.00004 9.63933L5.00486 9.45755L5 9.28436L5.12148 4.95536C5.12318 4.89496 5.1276 4.83519 5.13466 4.77616L5.13742 4.7512L5.13961 4.73108C5.19932 4.14604 5.53759 3.63578 6.03055 3.32957C6.06733 3.30613 6.10497 3.28381 6.14342 3.26265C6.18104 3.24132 6.21943 3.22108 6.25855 3.202C6.50047 3.07963 6.77045 3.00032 7.05785 2.97497C9.01515 2.80229 10.9849 2.80229 12.9422 2.97497C13.2291 3.00028 13.4987 3.07938 13.7403 3.20141C13.7794 3.22047 13.8178 3.24068 13.8554 3.26199C13.8951 3.28377 13.9339 3.3068 13.9718 3.33102C14.4621 3.63655 14.7989 4.14416 14.8599 4.72625L14.8657 4.779C14.8725 4.83711 14.8769 4.89593 14.8785 4.95536L15 9.28436ZM13.7586 4.89759L13.8748 9.77234L13.7806 13.1304C13.7594 13.8853 13.1527 14.5058 12.3681 14.575C10.7927 14.714 9.20731 14.714 7.63191 14.575C6.8473 14.5058 6.24058 13.8853 6.2194 13.1304L6.12517 9.77275L6.24146 4.89759C6.24171 4.8871 6.24217 4.87666 6.24282 4.86626C6.28688 4.58068 6.45956 4.33416 6.7044 4.18447C6.79716 4.13813 6.90007 4.10739 7.00955 4.09603C8.99738 3.88971 11.0026 3.88971 12.9905 4.09603C13.0999 4.10739 13.2028 4.1381 13.2955 4.18441C13.5405 4.33414 13.7132 4.58078 13.7572 4.8665C13.7579 4.87682 13.7583 4.88718 13.7586 4.89759ZM10 17.2354C10.6137 17.2354 11.1111 16.7586 11.1111 16.1705C11.1111 15.5824 10.6137 15.1057 10 15.1057C9.3864 15.1057 8.88896 15.5824 8.88896 16.1705C8.88896 16.7586 9.3864 17.2354 10 17.2354Z" fill="#888888"/>
</svg>
