<svg width="24" height="24" viewBox="0 0 24 24" fill="none" xmlns="http://www.w3.org/2000/svg">
<path d="M4.43945 6.52476C4.43945 5.02026 5.61912 3.78931 7.06093 3.78931H17.0225C18.4643 3.78931 19.644 5.02026 19.644 6.52476V16.9195C19.644 18.424 18.4643 19.6549 17.0225 19.6549H7.06093C5.61912 19.6549 4.43945 18.424 4.43945 16.9195V6.52476Z" fill="black"/>
<path fill-rule="evenodd" clip-rule="evenodd" d="M6.14274 4.36359C6.40489 4.22681 6.69325 4.14475 7.19133 4.1174C7.68941 4.06269 8.31857 4.06269 9.20987 4.06269H14.8723C15.7636 4.06269 16.3927 4.06269 16.8908 4.1174C17.3889 4.1721 17.7034 4.22681 17.9394 4.36359C18.4375 4.63713 18.8307 5.04745 19.0928 5.56719C19.2239 5.84073 19.3025 6.14163 19.3288 6.66137C19.355 7.12639 19.3812 7.70084 19.3812 8.46677C19.355 11.804 17.3627 14.6762 14.4004 16.1534C13.4829 16.7825 11.8313 17.1929 9.94388 17.1929C7.06026 17.1929 4.72715 16.2081 4.70093 15.0318C4.70093 14.9224 4.70093 14.813 4.70093 14.6762V8.76766C4.70093 7.83761 4.70093 7.1811 4.75336 6.66137C4.80579 6.14163 4.85822 5.81338 4.9893 5.56719C5.22523 5.04745 5.64466 4.60978 6.14274 4.36359ZM14.8985 2.96851H9.18366C8.31857 2.96851 7.63699 2.96851 7.08648 3.02321C6.53597 3.05057 6.09032 3.15999 5.64466 3.37882C4.96308 3.76179 4.41257 4.33623 4.04556 5.04745C3.83585 5.51248 3.73099 5.9775 3.70477 6.5793C3.65234 7.12639 3.65234 7.83761 3.65234 8.74031V14.7036C3.65234 15.6063 3.65234 16.3175 3.70477 16.892C3.7572 17.4664 3.83585 17.9588 4.07178 18.3965C4.41257 19.1077 4.96308 19.6821 5.64466 20.0651C6.0641 20.2839 6.53597 20.3933 7.08648 20.448C7.63699 20.5028 8.31857 20.5028 9.18366 20.5028H14.8985C15.7636 20.5028 16.4451 20.5028 16.9957 20.448C17.5462 20.3933 18.018 20.3113 18.4375 20.0651C19.119 19.7095 19.6958 19.1077 20.0366 18.3965C20.2463 17.9588 20.3511 17.4664 20.4036 16.892C20.456 16.3175 20.456 15.6063 20.456 14.7036V8.74031C20.456 7.83761 20.456 7.12639 20.4036 6.55195C20.3511 5.9775 20.2725 5.48512 20.0366 5.04745C19.6696 4.33623 19.119 3.76179 18.4375 3.37882C18.018 3.15999 17.5462 3.05057 16.9957 2.99586C16.4451 2.96851 15.7636 2.96851 14.8985 2.96851Z" fill="black"/>
<path d="M17.8082 8.9864C16.078 8.9864 14.6624 7.50926 14.6624 5.70386H12.5652V14.4573C12.5652 15.36 11.8574 16.0986 10.9923 16.0986C10.1272 16.0986 9.41945 15.36 9.41945 14.4573C9.41945 13.5546 10.1272 12.816 10.9923 12.816C11.1758 12.816 11.3593 12.8434 11.5166 12.8981V10.655C11.3331 10.6277 11.1758 10.6277 10.9923 10.6277C8.9738 10.6277 7.32227 12.351 7.32227 14.4573C7.32227 16.5636 8.9738 18.2869 10.9923 18.2869C13.0109 18.2869 14.6624 16.5636 14.6624 14.4573V10.0806C15.5275 10.7644 16.6285 11.1748 17.8082 11.1748V8.9864Z" fill="#FE2C55"/>
<path d="M17.2838 8.43952C15.5536 8.43952 14.138 6.96238 14.138 5.15698H12.0408V13.9104C12.0408 14.8131 11.333 15.5517 10.4679 15.5517C9.60283 15.5517 8.89503 14.8131 8.89503 13.9104C8.89503 13.0077 9.60283 12.2692 10.4679 12.2692C10.6514 12.2692 10.8349 12.2965 10.9922 12.3512V10.1082C10.8087 10.0808 10.6514 10.0808 10.4679 10.0808C8.44938 10.0808 6.79785 11.8041 6.79785 13.9104C6.79785 16.0167 8.44938 17.7401 10.4679 17.7401C12.4865 17.7401 14.138 16.0167 14.138 13.9104V9.53371C15.0031 10.2176 16.1041 10.6279 17.2838 10.6279V8.43952Z" fill="#25F4EE"/>
<path d="M17.2839 8.93169C16.4974 8.79492 15.8158 8.35725 15.344 7.72809C14.741 7.23571 14.3216 6.52449 14.1905 5.70386H12.5652V14.4573C12.5652 15.36 11.8574 16.0986 10.9923 16.0986C10.4156 16.0986 9.91753 15.7703 9.65538 15.3053C9.20973 15.0044 8.89515 14.4847 8.89515 13.9102C8.89515 13.0075 9.60295 12.2689 10.468 12.2689C10.6515 12.2689 10.835 12.2963 10.9923 12.351V10.6277C8.9738 10.6277 7.32227 12.351 7.32227 14.4573C7.32227 15.3874 7.63684 16.208 8.16114 16.8645C8.79029 17.4116 9.60295 17.7398 10.468 17.7398C12.4866 17.7398 14.1381 16.0165 14.1381 13.9102V9.53349C15.0032 10.2174 16.1042 10.6277 17.2839 10.6277V8.93169Z" fill="white"/>
</svg>
