<svg width="20" height="22" viewBox="0 0 20 22" fill="none" xmlns="http://www.w3.org/2000/svg">
<path d="M10.6247 6.1403C10.6247 5.77696 10.3449 5.48241 9.99967 5.48241C9.6545 5.48241 9.37467 5.77696 9.37467 6.1403V10.5263C9.37467 10.7531 9.48569 10.9639 9.66843 11.0842L12.1684 12.7289C12.4611 12.9215 12.8467 12.8278 13.0297 12.5197C13.2126 12.2116 13.1236 11.8057 12.8309 11.6131L10.6247 10.1616V6.1403Z" fill="#888888"/>
<path fill-rule="evenodd" clip-rule="evenodd" d="M9.99967 2.85083C5.9726 2.85083 2.70801 6.28724 2.70801 10.5263C2.70801 14.7653 5.9726 18.2017 9.99967 18.2017C14.0268 18.2017 17.2913 14.7653 17.2913 10.5263C17.2913 6.28724 14.0268 2.85083 9.99967 2.85083ZM3.95801 10.5263C3.95801 7.01393 6.66295 4.16662 9.99967 4.16662C13.3364 4.16662 16.0413 7.01393 16.0413 10.5263C16.0413 14.0386 13.3364 16.8859 9.99967 16.8859C6.66295 16.8859 3.95801 14.0386 3.95801 10.5263Z" fill="#888888"/>
</svg>
