<svg width="24" height="24" viewBox="0 0 24 24" fill="none" xmlns="http://www.w3.org/2000/svg">
<path fill-rule="evenodd" clip-rule="evenodd" d="M19.1685 12.7371C19.8239 13.3657 20.5117 13.9544 21.0942 14.6467C21.3532 14.957 21.5959 15.2673 21.782 15.6253C22.049 16.1346 21.8063 16.6915 21.3451 16.7154H18.4727C17.7283 16.779 17.1457 16.4846 16.644 15.9834C16.2476 15.5856 15.8754 15.1639 15.4951 14.7501C15.3413 14.583 15.1714 14.4239 14.9772 14.2966C14.5889 14.0499 14.249 14.1215 14.0225 14.5273C13.7959 14.9331 13.7393 15.3866 13.7231 15.8481C13.6907 16.5165 13.4884 16.6836 12.8088 16.7154C11.3604 16.779 9.98493 16.5642 8.69841 15.8481C7.57373 15.2116 6.69987 14.3205 5.9312 13.302C4.4505 11.3288 3.31772 9.15661 2.29013 6.92876C2.06357 6.42749 2.2254 6.15696 2.79179 6.14901C3.73037 6.13309 4.66087 6.13309 5.59946 6.14901C5.97975 6.15696 6.23058 6.37179 6.37622 6.72188C6.88597 7.9472 7.50091 9.10887 8.27767 10.191C8.48804 10.4774 8.69841 10.7638 8.99779 10.9707C9.32953 11.1935 9.58036 11.1219 9.74219 10.7559C9.83928 10.5251 9.88783 10.2785 9.90401 10.0318C9.97684 9.18048 9.98493 8.32912 9.85547 7.47776C9.77455 6.94467 9.47518 6.60253 8.93306 6.50706C8.65796 6.45932 8.69841 6.35588 8.83597 6.2047C9.09489 5.93418 9.31335 5.76709 9.74219 5.76709H12.9868C13.4965 5.86257 13.6098 6.09331 13.6826 6.59458V10.1353C13.6745 10.3342 13.7797 10.915 14.1438 11.0423C14.427 11.1378 14.6212 10.9071 14.7911 10.732C15.5679 9.92044 16.1181 8.96565 16.6198 7.97107C16.8382 7.53346 17.0324 7.07993 17.2104 6.6264C17.348 6.29223 17.5584 6.12514 17.9467 6.13309H21.07C21.159 6.13309 21.2561 6.13309 21.3451 6.14901C21.871 6.23653 22.0166 6.45932 21.8548 6.96854C21.5959 7.7642 21.1023 8.4246 20.6169 9.085C20.099 9.79314 19.5407 10.4774 19.0229 11.1935C18.5374 11.8459 18.5779 12.1722 19.1685 12.7371Z" fill="#4E7ACF"/>
</svg>
