<svg width="24" height="24" viewBox="0 0 24 24" fill="none" xmlns="http://www.w3.org/2000/svg">
<g clip-path="url(#clip0_214_2462)">
<path d="M19.7405 5.96323C19.2843 5.09171 18.7888 4.93293 17.7845 4.86941C16.7769 4.79885 14.2465 4.76709 12.0575 4.76709C9.86182 4.76709 7.32814 4.79885 6.32386 4.86941C5.31958 4.93293 4.824 5.09171 4.36453 5.96323C3.89521 6.83475 3.65234 8.33434 3.65234 10.9736C3.65234 10.9771 3.65234 10.9771 3.65234 10.9771C3.65234 10.9807 3.65234 10.9807 3.65234 10.9807V10.9842C3.65234 13.6129 3.89521 15.123 4.36453 15.984C4.824 16.8555 5.31958 17.0143 6.32386 17.0884C7.33142 17.1519 9.86182 17.1872 12.0575 17.1872C14.2498 17.1872 16.7802 17.1484 17.7878 17.0884C18.7953 17.0143 19.2909 16.8555 19.7438 15.984C20.2164 15.123 20.456 13.6129 20.456 10.9842C20.456 10.9842 20.456 10.9807 20.456 10.9771V10.9736C20.456 8.33434 20.2164 6.83475 19.7405 5.96323ZM9.95371 14.3644V7.58984L15.2049 10.9771L9.95371 14.3644Z" fill="#FF5252"/>
</g>
<defs>
<clipPath id="clip0_214_2462">
<rect width="16.8037" height="12.4201" fill="white" transform="translate(3.65234 4.76709)"/>
</clipPath>
</defs>
</svg>
